<svg width="400" height="400" viewBox="0 0 400 400" fill="none" xmlns="http://www.w3.org/2000/svg">
<path d="M230.344 87.2077C209.606 87.2077 146.403 86.8802 135.853 91.0526C133.579 91.9522 106.931 137.549 105.256 153.637C103.866 166.999 108.586 238.517 108.586 269.065C108.586 276.221 104.37 341.097 110.45 345.667C112.513 347.218 132.815 348.609 135.853 348.609C158.539 348.609 213.247 349.736 225.996 345.667C227.297 345.252 227.509 297.829 227.859 293.975C230.464 265.219 222.864 160.152 227.859 145.127C233.284 128.807 241.577 113.208 247.115 96.5489" stroke="black" stroke-opacity="0.9" stroke-width="16" stroke-linecap="round" stroke-linejoin="round"/>
<path d="M250.477 91.0527C261.553 101.143 277.804 107.001 286.392 119.757C296.789 135.207 295.853 307.879 292.062 311.631C284.395 319.229 264.967 331.834 250.477 335.459" stroke="black" stroke-opacity="0.9" stroke-width="16" stroke-linecap="round" stroke-linejoin="round"/>
<path d="M135.853 81.8419C135.853 75.8277 131.644 62.8325 139.353 57.276C149.113 50.2413 228.654 50.2413 240.317 57.276C244.7 59.9173 245.871 82.3725 245.525 86.8803" stroke="black" stroke-opacity="0.9" stroke-width="16" stroke-linecap="round" stroke-linejoin="round"/>
<path opacity="0.503384" d="M109.428 153.637C150.507 152.033 189.784 158.104 227.365 150.229C247.403 146.031 266.927 135.219 286.056 123.041" stroke="black" stroke-opacity="0.9" stroke-width="14" stroke-linecap="round" stroke-linejoin="round"/>
</svg>
