<svg width="400" height="400" viewBox="0 0 400 400" fill="none" xmlns="http://www.w3.org/2000/svg">
<path d="M191.199 265.504C191.199 246 200.012 207.417 202.999 189.909M166.307 184.206C157.986 183.627 154.736 183.352 155.544 189.909C156.12 194.612 155.945 199.237 155.857 203.915C155.469 224.617 153.747 243.459 151.925 264.111" stroke="black" stroke-opacity="0.9" stroke-width="16" stroke-linecap="round" stroke-linejoin="round"/>
<path d="M265.4 150.791C229.832 163.176 195.222 185.541 158.3 183.838" stroke="black" stroke-opacity="0.9" stroke-width="16" stroke-linecap="round" stroke-linejoin="round"/>
<path d="M205.475 187.754C214.601 186.707 247.529 177.609 255.21 176.714C268.837 175.131 282.554 175.332 296 171.185" stroke="black" stroke-opacity="0.9" stroke-width="16" stroke-linecap="round" stroke-linejoin="round"/>
<path d="M190.732 265.504C191.096 276.954 191.136 291.944 190.732 302.067C190.127 317.323 190.367 332.615 190.177 347.886C190.122 352.648 191.276 356.072 196.805 355.736C197.99 355.664 199.26 355.654 200.375 356" stroke="black" stroke-opacity="0.9" stroke-width="16" stroke-linecap="round" stroke-linejoin="round"/>
<path d="M152.31 268.054C149.917 293.738 148.075 328.095 148.1 352.464C148.104 357.421 152.516 354.038 154.475 356" stroke="black" stroke-opacity="0.9" stroke-width="16" stroke-linecap="round" stroke-linejoin="round"/>
<path d="M150.855 59.0207C165.603 47.3193 188.826 40.683 208.2 48.1743C270.748 72.3578 252.338 155.504 181.384 150.581C138.896 147.633 130.101 71.7253 162.957 59.0207" stroke="black" stroke-opacity="0.9" stroke-width="16" stroke-linecap="round" stroke-linejoin="round"/>
</svg>
