<svg width="400" height="400" viewBox="0 0 400 400" fill="none" xmlns="http://www.w3.org/2000/svg">
<path d="M117.762 93.5452C177.416 7.2401 286.219 146.205 209.763 203.086C150.352 247.291 80.6021 178.391 108.495 118.441" stroke="black" stroke-opacity="0.9" stroke-width="16" stroke-linecap="round" stroke-linejoin="round"/>
<path d="M88 321.134C133.281 320.049 143.28 234.293 193.563 243.336C205.066 245.405 226.354 258.484 257.428 282.574C280.54 221.917 294.439 187.164 299.126 178.314" stroke="black" stroke-opacity="0.9" stroke-width="16" stroke-linecap="round" stroke-linejoin="round"/>
<path d="M176.828 250.418C172.914 276.105 172.098 314.839 169.104 335" stroke="black" stroke-opacity="0.9" stroke-width="16" stroke-linecap="round" stroke-linejoin="round"/>
<path d="M275.954 176.928C288.293 174.815 299.957 171.054 312 168.608" stroke="black" stroke-opacity="0.9" stroke-width="16" stroke-linecap="round" stroke-linejoin="round"/>
<path opacity="0.503384" d="M311.262 172.768C299.91 187.356 315.455 311.32 311.262 314.353C309.543 315.597 286.14 312.922 257.287 312.922C235.322 312.922 214.817 318.919 206.528 312.922C205.561 312.223 206.528 301.77 206.528 300.05C206.528 270.933 206.34 240.71 202.575 212.098" stroke="black" stroke-opacity="0.9" stroke-width="14" stroke-linecap="round" stroke-linejoin="round"/>
<path opacity="0.503384" d="M236.046 120.922C259.303 120.238 282.269 120.922 305.563 120.922" stroke="black" stroke-opacity="0.9" stroke-width="14" stroke-linecap="round" stroke-linejoin="round"/>
</svg>
