<svg width="400" height="400" viewBox="0 0 400 400" fill="none" xmlns="http://www.w3.org/2000/svg">
<path d="M272.726 141.984C273.098 135.052 273.648 125.015 271.608 123.054C255.765 107.828 212.768 117.183 204.653 137.881C199.523 150.966 197.475 168.838 198.509 191.497C182.326 191.497 173.252 192.478 171.29 194.441C169.457 196.274 169.207 226.805 171.29 226.805C179.836 226.805 195.884 228.765 195.884 228.765C195.884 228.765 196.507 307.565 195.884 308.205C193.028 311.142 100.434 308.205 87.9858 308.205C81.2678 308.205 87.9858 207.248 87.9858 196.297C87.9858 188.474 87.1682 99.9269 87.9858 99.1058C91.4077 95.6496 124.248 96.4225 129.235 96.4225C158.815 96.4225 286.533 81.619 306.698 93.824C315.258 99.0083 313.925 132.462 313.925 140.446C313.925 152.139 313.494 302.686 309.915 308.205C306.698 313.168 237.284 310.456 232.822 308.205C231.461 307.519 231.461 281.892 232.822 231.326C254.855 233.924 265.872 232.417 265.872 226.805C265.872 215.909 265.872 202.606 265.872 198.111C265.872 195.665 255.666 194.441 235.254 194.441C234.623 177.082 235.847 165.322 238.927 159.16C243.88 149.252 249.046 150.925 262.121 152.72" stroke="black" stroke-opacity="0.9" stroke-width="16" stroke-linecap="round" stroke-linejoin="round"/>
</svg>
