<svg width="400" height="400" viewBox="0 0 400 400" fill="none" xmlns="http://www.w3.org/2000/svg">
<path d="M251.464 104.739C271.024 55.1638 337.025 100.707 309.296 138.847C284.577 172.846 230.963 165.697 242.642 118.58" stroke="black" stroke-opacity="0.9" stroke-width="16" stroke-linecap="round" stroke-linejoin="round"/>
<path d="M222 121.465C180.117 94.4133 126.433 104.361 86 125" stroke="black" stroke-opacity="0.9" stroke-width="16" stroke-linecap="round" stroke-linejoin="round"/>
<path d="M84.5003 126C66.499 135.5 142.437 177.586 155 211" stroke="black" stroke-opacity="0.9" stroke-width="16" stroke-linecap="round" stroke-linejoin="round"/>
<path d="M155.563 211C161.72 222.878 146.63 282.321 138 316" stroke="black" stroke-opacity="0.9" stroke-width="16" stroke-linecap="round" stroke-linejoin="round"/>
<path d="M140 315.043C146.048 314.756 156.253 316 166 316" stroke="black" stroke-opacity="0.9" stroke-width="16" stroke-linecap="round" stroke-linejoin="round"/>
<path d="M221.87 121C216.795 161.737 218.621 213.909 226 254" stroke="black" stroke-opacity="0.9" stroke-width="16" stroke-linecap="round" stroke-linejoin="round"/>
<path d="M227.142 254C222.356 270.767 233.903 281.141 238 282" stroke="black" stroke-opacity="0.9" stroke-width="16" stroke-linecap="round" stroke-linejoin="round"/>
<path d="M193 179C229.218 174.5 271.153 179 307 179" stroke="black" stroke-opacity="0.9" stroke-width="16" stroke-linecap="round" stroke-linejoin="round"/>
<path d="M192.962 179C193.485 207.712 188.296 252.807 192.962 277" stroke="black" stroke-opacity="0.9" stroke-width="16" stroke-linecap="round" stroke-linejoin="round"/>
<path d="M195 280C231.712 274.335 269.734 278.433 307 278.433" stroke="black" stroke-opacity="0.9" stroke-width="16" stroke-linecap="round" stroke-linejoin="round"/>
<path d="M307 179C304.273 205.958 305.127 250.101 305.127 277" stroke="black" stroke-opacity="0.9" stroke-width="16" stroke-linecap="round" stroke-linejoin="round"/>
</svg>
