<svg width="400" height="400" viewBox="0 0 400 400" fill="none" xmlns="http://www.w3.org/2000/svg">
<path d="M181.726 113.022C194.305 103.377 216.027 98.5894 232.551 104.764C285.901 124.695 256.726 191.768 203.261 185.109C167.223 180.622 169.208 118.988 197.232 108.517" stroke="black" stroke-opacity="0.9" stroke-width="16" stroke-linecap="round" stroke-linejoin="round"/>
<path d="M156.345 304C149.018 271.087 155.566 237.909 161.653 205.469" stroke="black" stroke-opacity="0.9" stroke-width="16" stroke-linecap="round" stroke-linejoin="round"/>
<path d="M248 223C236.598 241.189 222.507 282.599 216 304" stroke="black" stroke-opacity="0.9" stroke-width="16" stroke-linecap="round" stroke-linejoin="round"/>
<path d="M40 160.367C45.9369 162.039 45.1682 170.562 48.4511 175.727C56.2106 187.937 75.6611 218.477 78.539 222.151C87.7588 233.93 90.1189 239.616 102.297 230.84C111.953 223.875 149.531 205.193 160.009 204.096M248.377 222.756C263.22 225.85 275.676 279.864 282.969 275.537C296.376 267.582 329.499 248.573 343.137 240.703C347.566 238.147 347.793 233.619 360 230.057" stroke="black" stroke-opacity="0.9" stroke-width="16" stroke-linecap="round" stroke-linejoin="round"/>
</svg>
