<svg width="400" height="400" viewBox="0 0 400 400" fill="none" xmlns="http://www.w3.org/2000/svg">
<path d="M270.517 104.336C268.615 82.2762 257.69 60.9721 207.939 51.1173C96.7049 29.0834 183.143 208.054 96.0508 229.645" stroke="black" stroke-opacity="0.9" stroke-width="16" stroke-linecap="round" stroke-linejoin="round"/>
<path d="M258.085 116.959C264 155.5 232.5 195 188.5 182" stroke="black" stroke-opacity="0.9" stroke-width="16" stroke-linecap="round" stroke-linejoin="round"/>
<path d="M114.258 354C114.523 351.897 114.855 349.803 115.294 347.732C116.106 343.872 118.813 259.028 156.796 210.621" stroke="black" stroke-opacity="0.9" stroke-width="16" stroke-linecap="round" stroke-linejoin="round"/>
<path opacity="0.503384" d="M265 222C266.839 218.352 309.912 153.039 311 151" stroke="black" stroke-opacity="0.9" stroke-width="14" stroke-linecap="round" stroke-linejoin="round"/>
<path d="M156.978 210.992C156.917 210.869 156.857 210.745 156.796 210.621C175.76 249.725 205 290 226.276 316.828C226.682 316.041 227.089 315.25 227.488 314.459C239.913 287.784 254.71 258.288 264.786 230.702C265.946 227.58 266.847 224.226 269.427 221.945C270.251 221.219 271.214 220.674 272.248 220.308C272.286 219.953 272.354 219.609 272.449 219.273" stroke="black" stroke-opacity="0.9" stroke-width="16" stroke-linecap="round" stroke-linejoin="round"/>
<path d="M236 134C235.171 135.476 230.873 141.373 230 142" stroke="black" stroke-opacity="0.9" stroke-width="16" stroke-linecap="round" stroke-linejoin="round"/>
<path d="M271.12 213.271C274.47 218.854 279.764 218.574 287.002 212.431C297.859 203.215 298.567 189.89 292.799 184.069" stroke="black" stroke-opacity="0.9" stroke-width="16" stroke-linecap="round" stroke-linejoin="round"/>
</svg>
