<svg width="400" height="400" viewBox="0 0 400 400" fill="none" xmlns="http://www.w3.org/2000/svg">
<path opacity="0.503384" d="M53 177.39C70.2667 227.95 118.189 175.016 121.331 176.579C129.346 180.564 135.769 215.493 168.791 201.809C174.3 199.525 191.944 175.243 196.613 176.173C198.606 176.569 200.237 184.407 201.52 185.94C206.412 191.775 216.519 196.132 223.614 198.15C230.152 200.004 240.647 201.869 246.936 199.366C250.073 198.12 265.247 181.435 266.982 181.87C268.772 182.315 270.716 188.6 271.894 190.01C281.137 201.038 315.128 204.104 327.538 198.961C333.588 196.454 336.392 190.064 342.676 187.567" stroke="black" stroke-opacity="0.9" stroke-width="14" stroke-linecap="round" stroke-linejoin="round"/>
<path d="M53 173.265C70.2243 147.24 87.9686 121.289 102.049 106.95C116.129 92.612 295.931 93.4316 297.314 94.5521C318.061 111.295 331.497 147.636 347 169.534" stroke="black" stroke-opacity="0.9" stroke-width="16" stroke-linecap="round" stroke-linejoin="round"/>
<path d="M57.3218 172.371C143.141 168.866 231.37 175.213 318.175 175.213" stroke="black" stroke-opacity="0.9" stroke-width="16" stroke-linecap="round" stroke-linejoin="round"/>
<path opacity="0.503384" d="M140.913 108.412C140.552 125.007 136.769 141.068 135.148 157.412" stroke="black" stroke-opacity="0.9" stroke-width="14" stroke-linecap="round" stroke-linejoin="round"/>
<path opacity="0.503384" d="M194.247 112.735C196.102 129.377 194.191 146.66 195.67 163.177" stroke="black" stroke-opacity="0.9" stroke-width="14" stroke-linecap="round" stroke-linejoin="round"/>
<path opacity="0.503384" d="M253.325 106.971C261.292 126.265 266.188 146.408 272.06 166.059" stroke="black" stroke-opacity="0.9" stroke-width="14" stroke-linecap="round" stroke-linejoin="round"/>
<path d="M82.5615 203.529C84.265 235.407 82.4232 268.53 85.4107 300.088" stroke="black" stroke-opacity="0.9" stroke-width="16" stroke-linecap="round" stroke-linejoin="round"/>
<path d="M326.537 206.412C325.811 239.615 328.673 272.799 328.673 305.853" stroke="black" stroke-opacity="0.9" stroke-width="16" stroke-linecap="round" stroke-linejoin="round"/>
<path d="M117.541 298.158C116.68 284.341 114.802 222.208 119.331 216.534C120.119 215.547 136.172 213.627 146.804 213.627C157.437 213.627 177.191 213.46 177.191 214.479C177.191 223.638 177.497 237.174 177.79 250.595C178.175 268.253 178.508 286.121 177.79 297.627" stroke="black" stroke-opacity="0.9" stroke-width="16" stroke-linecap="round" stroke-linejoin="round"/>
<path d="M211.657 208.217C210.456 218.522 207.836 264.858 214.154 269.089C215.254 269.826 237.653 271.257 252.49 271.257C267.327 271.257 294.89 271.382 294.89 270.622C294.89 263.791 295.317 253.697 295.725 243.688C296.263 230.519 296.727 217.194 295.725 208.613" stroke="black" stroke-opacity="0.9" stroke-width="16" stroke-linecap="round" stroke-linejoin="round"/>
</svg>
