<svg width="400" height="400" viewBox="0 0 400 400" fill="none" xmlns="http://www.w3.org/2000/svg">
<path d="M103.962 276.044C105.157 240.457 92.2286 83.4812 112.559 69.2957C124.229 61.153 160.223 63.4496 186.247 63.4496C205.563 63.4496 271.895 57.978 288.224 68.2957C296.928 73.795 298.181 97.4586 298.181 105.643C298.181 134.48 302.43 311.181 286.678 329.931C280.394 337.412 239.426 338.098 199.763 338.678C157.553 339.296 116.502 339.435 109.374 335.212C101.305 330.432 105.157 306.891 105.157 299.661" stroke="black" stroke-opacity="0.9" stroke-width="16" stroke-linecap="round" stroke-linejoin="round"/>
<path d="M122.509 298.259C172.494 299.751 231.382 293.64 278.301 298.259" stroke="black" stroke-opacity="0.9" stroke-width="16" stroke-linecap="round" stroke-linejoin="round"/>
<path d="M194.296 312.597C225.071 312.036 171.79 340.385 192.23 311.5" stroke="black" stroke-opacity="0.9" stroke-width="16" stroke-linecap="round" stroke-linejoin="round"/>
<path d="M119.727 100.5C173.092 98.8395 229.491 95.5 282.01 95.5" stroke="black" stroke-opacity="0.9" stroke-width="16" stroke-linecap="round" stroke-linejoin="round"/>
<path d="M208.751 81.0523C203.759 81.0223 198.746 80.7042 193.914 82.0034" stroke="black" stroke-opacity="0.9" stroke-width="16" stroke-linecap="round" stroke-linejoin="round"/>
</svg>
