<?xml version="1.0" standalone="no"?>
<!DOCTYPE svg PUBLIC "-//W3C//DTD SVG 20010904//EN"
 "http://www.w3.org/TR/2001/REC-SVG-20010904/DTD/svg10.dtd">
<svg version="1.0" xmlns="http://www.w3.org/2000/svg"
 width="512.000000pt" height="512.000000pt" viewBox="0 0 512.000000 512.000000"
 preserveAspectRatio="xMidYMid meet">
<metadata>
Created by potrace 1.16, written by Peter Selinger 2001-2019
</metadata>
<g transform="translate(0.000000,512.000000) scale(0.100000,-0.100000)"
fill="#000000" stroke="none">
<path d="M0 2560 l0 -2560 2560 0 2560 0 0 2560 0 2560 -2560 0 -2560 0 0
-2560z m2398 595 c52 -22 97 -69 124 -129 23 -50 23 -58 23 -376 0 -320 0
-326 -24 -377 -27 -62 -83 -115 -137 -134 -50 -17 -198 -17 -248 0 -54 19
-110 72 -137 134 -24 51 -24 57 -24 377 0 318 0 326 23 375 54 116 136 159
290 150 39 -3 89 -12 110 -20z m-708 -425 l0 -430 110 0 110 0 0 -80 0 -80
-220 0 -220 0 0 510 0 510 110 0 110 0 0 -430z m1843 -67 c48 -274 87 -504 87
-510 0 -10 -27 -13 -99 -13 l-99 0 -7 43 c-3 23 -11 70 -17 105 l-10 62 -67 0
-68 0 -12 -87 c-19 -135 -8 -123 -122 -123 -82 0 -99 3 -99 15 0 18 169 975
175 993 3 9 38 12 128 12 l123 0 87 -497z m-575 -150 l-3 -68 -155 0 -155 0
-3 54 c-2 29 -1 60 2 67 4 11 39 14 161 14 l156 0 -3 -67z m930 -275 l3 -98
-96 0 -95 0 0 100 0 101 93 -3 92 -3 3 -97z"/>
<path d="M2223 3002 c-28 -18 -33 -70 -33 -352 0 -282 5 -334 33 -352 23 -14
64 -8 83 13 18 19 19 42 22 303 3 299 0 357 -24 381 -16 16 -61 20 -81 7z"/>
<path d="M3317 2810 c-11 -29 -39 -290 -33 -305 4 -12 16 -15 43 -13 38 3 38
3 35 43 -8 93 -39 289 -45 275z"/>
</g>
</svg>
